<svg xmlns="http://www.w3.org/2000/svg" version="1.1" xmlns:xlink="http://www.w3.org/1999/xlink" xmlns:svgjs="http://svgjs.dev/svgjs" width="1000" height="406" viewBox="0 0 1000 406"><g transform="matrix(1,0,0,1,-0.6060606060606233,0.5520311574199468)"><svg viewBox="0 0 396 161" data-background-color="#dedede" preserveAspectRatio="xMidYMid meet" height="406" width="1000" xmlns="http://www.w3.org/2000/svg" xmlns:xlink="http://www.w3.org/1999/xlink"><g id="tight-bounds" transform="matrix(1,0,0,1,0.2400000000000091,-0.21890890725273948)"><svg viewBox="0 0 395.52 161.43781781450548" height="161.43781781450548" width="395.52"><g><svg viewBox="0 0 397.4975999999999 162.24500690357797" height="161.43781781450548" width="395.52"><g><rect width="397.4975999999999" height="2.938778906665567" x="0" y="91.19329478802157" fill="#374151" opacity="1" stroke-width="0" stroke="transparent" fill-opacity="1" class="rect-i$-0" data-fill-palette-color="secondary" rx="1%" id="i$-0" data-palette-color="#374151"></rect></g><g transform="matrix(1,0,0,1,0.9887999999999693,101.82521219381165)"><svg viewBox="0 0 395.52 60.41979470976632" height="60.41979470976632" width="395.52"><g id="textblocktransform"><svg viewBox="0 0 395.52 60.41979470976632" height="60.41979470976632" width="395.52" id="textblock"><g><svg viewBox="0 0 395.52 32.58755019199123" height="32.58755019199123" width="395.52"><g transform="matrix(1,0,0,1,0,0)"><svg width="395.52" viewBox="3.4 -36.95 455.71000000000004 37.550000000000004" height="32.58755019199123" data-palette-color="#374151"><path d="M4.1-33.2L3.4-36.45 25.5-36.45 25.5-32.7 9.2-32.7 9.2-20.6 21.8-20.6 21.8-16.85 9.2-16.85 9.2-3.75 25.5-3.75 25.5 0 4.1 0 4.1-33.2ZM28.7-36.45L34.6-36.45 56.35 0 50.35 0 28.7-36.45ZM27.8 0L50-36.45 55.4-36.45 33.15 0 27.8 0ZM83.15 0L83.15-17 65.95-17 65.95 0 60.85 0 60.85-33.2Q60.85-33.25 60.67-33.98 60.5-34.7 60.35-35.5 60.2-36.3 60.15-36.45L60.15-36.45 65.95-36.45 65.95-20.75 83.15-20.75 83.15-36.45 88.3-36.45 88.3 0 83.15 0ZM105.84-36.45L110.59-36.45 123.24 0 117.64 0 113.54-12.1 101.79-12.1 97.64 0 93.14 0 105.84-36.45ZM112.29-15.8L107.69-29.8 103.04-15.8 112.29-15.8ZM126.09-36.45L132.09-36.45 132.09-12.2Q132.09-8.1 134.22-5.63 136.34-3.15 140.64-3.15L140.64-3.15Q145.09-3.15 147.42-5.8 149.74-8.45 149.74-12.75L149.74-12.75 149.74-36.45 153.99-36.45 153.99-13.1Q153.99-8.7 152.34-5.65 150.69-2.6 147.64-1 144.59 0.6 140.34 0.6L140.34 0.6Q133.94 0.6 130.39-2.75 126.84-6.1 126.84-12.55L126.84-12.55 126.84-33.2 126.09-36.45ZM172.09-36.95L172.09-36.95Q174.64-36.95 177.06-36.25 179.49-35.55 181.64-34.2L181.64-34.2 179.14-30.65Q177.59-31.8 175.76-32.48 173.94-33.15 172.04-33.15L172.04-33.15Q169.54-33.15 167.74-31.9 165.94-30.65 165.94-27.9L165.94-27.9Q165.94-26.3 166.76-25.2 167.59-24.1 168.99-23.28 170.39-22.45 172.09-21.65L172.09-21.65Q173.84-20.85 175.66-19.9 177.49-18.95 179.04-17.68 180.59-16.4 181.51-14.58 182.44-12.75 182.44-10.1L182.44-10.1Q182.44-6.45 180.69-4.08 178.94-1.7 176.06-0.55 173.19 0.6 169.89 0.6L169.89 0.6Q167.09 0.6 164.46-0.13 161.84-0.85 159.39-2.15L159.39-2.15 161.29-6.55Q162.99-5.1 165.31-4.17 167.64-3.25 169.84-3.25L169.84-3.25Q171.49-3.25 173.14-3.88 174.79-4.5 175.89-5.85 176.99-7.2 176.99-9.3L176.99-9.3Q176.99-11.4 175.94-12.78 174.89-14.15 173.21-15.13 171.54-16.1 169.64-16.95L169.64-16.95Q167.99-17.75 166.36-18.6 164.74-19.45 163.39-20.6 162.04-21.75 161.24-23.38 160.44-25 160.44-27.25L160.44-27.25Q160.44-30.5 162.14-32.65 163.84-34.8 166.51-35.88 169.19-36.95 172.09-36.95ZM195.64 0L195.64-32.7 184.99-32.7 184.99-36.45 211.69-36.45 211.69-32.7 200.89-32.7 200.89 0 195.64 0ZM216.88-33.2L216.18-36.45 238.28-36.45 238.28-32.7 221.98-32.7 221.98-20.6 234.58-20.6 234.58-16.85 221.98-16.85 221.98-3.75 238.28-3.75 238.28 0 216.88 0 216.88-33.2ZM273.18-18.15L273.18-18.15Q273.18-12.85 271.33-8.78 269.48-4.7 265.75-2.35 262.03 0 256.43 0L256.43 0 244.33 0 244.33-33.2Q244.33-33.25 244.16-33.98 243.98-34.7 243.83-35.5 243.68-36.3 243.63-36.45L243.63-36.45 253.93-36.45Q259.88-36.45 264.18-34.52 268.48-32.6 270.83-28.55 273.18-24.5 273.18-18.15ZM267.78-18.15L267.78-18.15Q267.78-21.8 266.88-24.53 265.98-27.25 264.21-29.08 262.43-30.9 259.78-31.8 257.13-32.7 253.53-32.7L253.53-32.7 249.43-32.7 249.43-3.75 255.88-3.75Q260.28-3.75 262.88-5.73 265.48-7.7 266.63-10.98 267.78-14.25 267.78-18.15ZM290.78-33.2L290.03-36.45 301.07-36.45Q304.68-36.45 307.5-35.35 310.32-34.25 311.93-31.85 313.53-29.45 313.53-25.45L313.53-25.45Q313.53-21.75 311.82-19.33 310.13-16.9 307.32-15.68 304.53-14.45 301.13-14.45L301.13-14.45 295.88-14.45 295.88 0 290.78 0 290.78-33.2ZM301.13-32.7L295.88-32.7 295.88-18.15 301.07-18.15Q304.38-18.15 306.28-20.18 308.18-22.2 308.18-25.45L308.18-25.45Q308.18-28.85 306.38-30.78 304.57-32.7 301.13-32.7L301.13-32.7ZM318.87-36.45L318.87-36.45 324.67-36.45 324.67 0 319.57 0 319.57-33.2Q319.57-33.25 319.4-33.98 319.22-34.7 319.07-35.5 318.92-36.3 318.87-36.45ZM348.07-36.95L348.07-36.95Q350.02-36.95 352.3-36.52 354.57-36.1 356.69-35.2 358.82-34.3 360.22-32.85L360.22-32.85 357.37-29.55Q355.82-30.8 354.47-31.58 353.12-32.35 351.67-32.75 350.22-33.15 348.07-33.15L348.07-33.15Q344.82-33.15 342.59-31.9 340.37-30.65 338.97-28.55 337.57-26.45 336.92-23.78 336.27-21.1 336.27-18.25L336.27-18.25Q336.27-15.6 336.87-12.95 337.47-10.3 338.8-8.13 340.12-5.95 342.25-4.65 344.37-3.35 347.52-3.35L347.52-3.35Q350.07-3.35 351.97-4.48 353.87-5.6 354.92-7.55 355.97-9.5 355.97-12.05L355.97-12.05 355.97-15.3 347.32-15.3 347.92-18.9 361.17-18.9 361.12-8.7Q361.12-6.55 361.27-4.35 361.42-2.15 361.57 0L361.57 0 358.82 0 357.22-3.8Q354.97-1.45 352.44-0.43 349.92 0.6 346.62 0.6L346.62 0.6Q342.67 0.6 339.72-0.88 336.77-2.35 334.8-4.93 332.82-7.5 331.87-10.8 330.92-14.1 330.92-17.8L330.92-17.8Q330.92-23.25 332.84-27.58 334.77-31.9 338.59-34.43 342.42-36.95 348.07-36.95ZM368.27-33.2L367.57-36.45 389.67-36.45 389.67-32.7 373.37-32.7 373.37-20.6 385.97-20.6 385.97-16.85 373.37-16.85 373.37-3.75 389.67-3.75 389.67 0 368.27 0 368.27-33.2ZM409.02 0.55L409.02 0.55Q404.97 0.55 401.89-0.95 398.81-2.45 396.77-5.05 394.72-7.65 393.69-11.03 392.67-14.4 392.67-18.2L392.67-18.2Q392.67-22 393.69-25.38 394.72-28.75 396.74-31.38 398.77-34 401.87-35.48 404.97-36.95 409.06-36.95L409.06-36.95Q413.22-36.95 416.29-35.48 419.37-34 421.42-31.4 423.47-28.8 424.49-25.4 425.52-22 425.52-18.15L425.52-18.15Q425.52-14.35 424.47-10.98 423.42-7.6 421.37-5 419.31-2.4 416.24-0.93 413.17 0.55 409.02 0.55ZM409.12-3.15L409.12-3.15Q412.27-3.15 414.37-4.48 416.47-5.8 417.74-8 419.02-10.2 419.56-12.85 420.12-15.5 420.12-18.15L420.12-18.15Q420.12-20.8 419.56-23.45 419.02-26.1 417.74-28.3 416.47-30.5 414.34-31.85 412.22-33.2 409.12-33.2L409.12-33.2Q406.02-33.2 403.89-31.88 401.77-30.55 400.52-28.35 399.27-26.15 398.69-23.5 398.12-20.85 398.12-18.2L398.12-18.2Q398.12-15.55 398.69-12.9 399.27-10.25 400.52-8.03 401.77-5.8 403.89-4.48 406.02-3.15 409.12-3.15ZM430.96-36.45L437.56-36.45 453.16-12.5Q453.61-11.8 454.11-11.03 454.61-10.25 455.11-9.5L455.11-9.5Q455.06-10.35 454.99-11.25 454.91-12.15 454.91-13L454.91-13 454.91-36.45 459.11-36.45 459.11 0.25 455.66 0.25 437.51-27.45Q437.11-28.15 436.61-28.9 436.11-29.65 435.61-30.35L435.61-30.35Q435.71-29.55 435.76-28.7 435.81-27.85 435.81-27.05L435.81-27.05 435.81 0 431.66 0 431.66-33.2 430.96-36.45Z" opacity="1" transform="matrix(1,0,0,1,0,0)" fill="#374151" class="undefined-text-0" data-fill-palette-color="primary" id="text-0"></path></svg></g></svg></g><g transform="matrix(1,0,0,1,0,40.28068869111575)"><svg viewBox="0 0 395.52 20.139106018650576" height="20.139106018650576" width="395.52"><g transform="matrix(1,0,0,1,0,0)"><svg width="395.52" viewBox="2.15 -36.75 932.87 47.5" height="20.139106018650576" data-palette-color="#374151"><path d="M16-33.5L16-33.5Q20.35-33.5 23.5-31.73 26.65-29.95 28.75-26.5L28.75-26.5 25.4-23.9Q23.55-27.1 21.23-28.43 18.9-29.75 15.6-29.75L15.6-29.75Q12.95-29.75 11.23-29 9.5-28.25 8.7-27.03 7.9-25.8 7.9-24.25L7.9-24.25Q7.9-22.5 9-21.18 10.1-19.85 13.4-19.1L13.4-19.1 20.55-17.5Q25.3-16.45 27.18-14.33 29.05-12.2 29.05-9.05L29.05-9.05Q29.05-6.25 27.48-4.08 25.9-1.9 23.05-0.7 20.2 0.5 16.35 0.5L16.35 0.5Q12.75 0.5 10.03-0.48 7.3-1.45 5.35-3.1 3.4-4.75 2.15-6.8L2.15-6.8 5.65-9.65Q6.6-7.75 8.1-6.3 9.6-4.85 11.73-4.05 13.85-3.25 16.6-3.25L16.6-3.25Q19.15-3.25 21.03-3.88 22.9-4.5 23.9-5.73 24.9-6.95 24.9-8.7L24.9-8.7Q24.9-10.3 23.85-11.58 22.8-12.85 19.9-13.5L19.9-13.5 12.15-15.25Q9.1-15.95 7.23-17.18 5.35-18.4 4.53-20.08 3.7-21.75 3.7-23.7L3.7-23.7Q3.7-26.35 5.18-28.58 6.65-30.8 9.43-32.15 12.2-33.5 16-33.5ZM68.8-25.5L68.8-25.5Q72.35-25.5 75.08-23.95 77.8-22.4 79.35-19.48 80.9-16.55 80.9-12.5L80.9-12.5Q80.9-8.45 79.35-5.53 77.8-2.6 75.08-1.05 72.35 0.5 68.8 0.5L68.8 0.5Q65.3 0.5 62.55-1.05 59.8-2.6 58.25-5.53 56.7-8.45 56.7-12.5L56.7-12.5Q56.7-16.55 58.25-19.48 59.8-22.4 62.55-23.95 65.3-25.5 68.8-25.5ZM68.8-22.05L68.8-22.05Q66.25-22.05 64.45-20.9 62.65-19.75 61.68-17.63 60.7-15.5 60.7-12.5L60.7-12.5Q60.7-9.55 61.68-7.4 62.65-5.25 64.45-4.1 66.25-2.95 68.8-2.95L68.8-2.95Q71.35-2.95 73.15-4.1 74.95-5.25 75.93-7.4 76.9-9.55 76.9-12.5L76.9-12.5Q76.9-15.5 75.93-17.63 74.95-19.75 73.15-20.9 71.35-22.05 68.8-22.05ZM120.36-36.75L120.36-36.75Q121.66-36.75 122.81-36.45 123.96-36.15 124.61-35.6L124.61-35.6 123.56-32.35Q122.96-32.75 122.26-32.93 121.56-33.1 120.71-33.1L120.71-33.1Q118.56-33.1 117.36-32.08 116.16-31.05 116.16-28.8L116.16-28.8 116.16-25 116.16-23.7 116.16 0 112.16 0 112.16-29.2Q112.16-30.85 112.66-32.25 113.16-33.65 114.18-34.65 115.21-35.65 116.76-36.2 118.31-36.75 120.36-36.75ZM107.16-25L124.51-25 124.51-21.55 107.16-21.55 107.16-25ZM153.51-31L157.51-32.1 157.51-6.9Q157.51-5.05 158.56-4.15 159.61-3.25 161.26-3.25L161.26-3.25Q162.71-3.25 163.76-3.75 164.81-4.25 165.66-5.1L165.66-5.1 167.06-1.75Q165.91-0.7 164.34-0.1 162.76 0.5 160.71 0.5L160.71 0.5Q158.81 0.5 157.16-0.18 155.51-0.85 154.54-2.33 153.56-3.8 153.51-6.2L153.51-6.2 153.51-31ZM148.51-25L166.61-25 166.61-21.55 148.51-21.55 148.51-25ZM219.37-4.65L225.67-25 230.12-25 221.42 0 217.42 0 210.37-19.9 203.72 0 199.72 0 191.02-25 195.47-25 201.77-4.65 208.57-25 212.57-25 219.37-4.65ZM272.47-9.25L272.47-16.15Q272.47-18.95 270.97-20.48 269.47-22 266.72-22L266.72-22Q264.12-22 262.32-20.88 260.52-19.75 259.67-17.25L259.67-17.25 256.42-19.25Q257.42-22.05 260.12-23.78 262.82-25.5 266.82-25.5L266.82-25.5Q269.52-25.5 271.72-24.58 273.92-23.65 275.19-21.78 276.47-19.9 276.47-16.95L276.47-16.95 276.47-4.85Q276.47-3.05 278.37-3.05L278.37-3.05Q279.32-3.05 280.22-3.3L280.22-3.3 280.02-0.15Q279.02 0.35 277.42 0.35L277.42 0.35Q275.97 0.35 274.82-0.2 273.67-0.75 273.02-1.88 272.37-3 272.37-4.7L272.37-4.7 272.37-5.2 273.37-5.05Q272.77-3.1 271.32-1.88 269.87-0.65 268.07-0.08 266.27 0.5 264.52 0.5L264.52 0.5Q262.32 0.5 260.42-0.25 258.52-1 257.39-2.53 256.27-4.05 256.27-6.3L256.27-6.3Q256.27-9.1 258.14-10.93 260.02-12.75 263.37-13.4L263.37-13.4 273.27-15.35 273.27-12.05 265.22-10.4Q262.77-9.9 261.57-9 260.37-8.1 260.37-6.5L260.37-6.5Q260.37-4.95 261.59-3.98 262.82-3 265.07-3L265.07-3Q266.52-3 267.84-3.38 269.17-3.75 270.22-4.53 271.27-5.3 271.87-6.48 272.47-7.65 272.47-9.25L272.47-9.25ZM311.92 0L307.92 0 307.92-25 311.17-25 311.72-20.9Q312.77-23.2 314.8-24.35 316.82-25.5 319.72-25.5L319.72-25.5Q320.37-25.5 321.15-25.4 321.92-25.3 322.47-25L322.47-25 321.77-21.35Q321.22-21.55 320.57-21.65 319.92-21.75 318.72-21.75L318.72-21.75Q317.17-21.75 315.6-20.85 314.02-19.95 312.97-18.13 311.92-16.3 311.92-13.5L311.92-13.5 311.92 0ZM360.53 0.5L360.53 0.5Q356.98 0.5 354.2-1.05 351.43-2.6 349.88-5.53 348.33-8.45 348.33-12.5L348.33-12.5Q348.33-16.55 349.88-19.48 351.43-22.4 354.13-23.95 356.83-25.5 360.28-25.5L360.28-25.5Q363.78-25.5 366.25-24 368.73-22.5 370.03-19.93 371.33-17.35 371.33-14.15L371.33-14.15Q371.33-13.3 371.28-12.6 371.23-11.9 371.13-11.35L371.13-11.35 350.93-11.35 350.93-14.9 369.38-14.9 367.33-14.5Q367.33-18.1 365.35-20.05 363.38-22 360.18-22L360.18-22Q357.73-22 355.95-20.88 354.18-19.75 353.2-17.63 352.23-15.5 352.23-12.5L352.23-12.5Q352.23-9.55 353.23-7.4 354.23-5.25 356.05-4.13 357.88-3 360.43-3L360.43-3Q363.18-3 364.9-4.05 366.63-5.1 367.68-6.9L367.68-6.9 370.83-5.05Q369.88-3.35 368.4-2.1 366.93-0.85 364.95-0.18 362.98 0.5 360.53 0.5ZM464.13 0L440.23 0 440.23-33 463.38-33 463.38-29.25 444.23-29.25 444.23-18.6 459.13-18.6 459.13-14.85 444.23-14.85 444.23-3.75 464.13-3.75 464.13 0ZM497.14 0L493.14 0 493.14-25 496.64-25 496.99-19.4 496.34-19.95Q497.14-21.95 498.49-23.18 499.84-24.4 501.61-24.95 503.39-25.5 505.29-25.5L505.29-25.5Q507.99-25.5 510.19-24.48 512.39-23.45 513.71-21.35 515.04-19.25 515.04-16L515.04-16 515.04 0 511.04 0 511.04-14.6Q511.04-18.75 509.26-20.38 507.49-22 504.89-22L504.89-22Q503.09-22 501.29-21.15 499.49-20.3 498.31-18.4 497.14-16.5 497.14-13.3L497.14-13.3 497.14 0ZM566.89-29.6L566.89-29.6 567.79-26.05Q567.74-26.05 567.64-26.05 567.54-26.05 567.44-26.05L567.44-26.05Q564.99-26.05 563.67-25.08 562.34-24.1 562.34-21.95L562.34-21.95 559.89-23.2Q559.89-25.15 560.79-26.6 561.69-28.05 563.24-28.83 564.79-29.6 566.64-29.6L566.64-29.6Q566.69-29.6 566.77-29.6 566.84-29.6 566.89-29.6ZM551.99-3.2L559.29-3.2Q562.84-3.2 564.84-1.58 566.84 0.05 566.84 2.75L566.84 2.75Q566.84 5.2 565.22 7 563.59 8.8 560.87 9.78 558.14 10.75 554.74 10.75L554.74 10.75Q548.84 10.75 545.92 8.75 542.99 6.75 542.99 3.95L542.99 3.95Q542.99 1.95 544.32 0.38 545.64-1.2 548.79-1.4L548.79-1.4 548.44-0.65Q546.74-1.1 545.57-2.18 544.39-3.25 544.39-5.3L544.39-5.3Q544.39-7.35 545.92-8.83 547.44-10.3 550.44-10.65L550.44-10.65 553.09-9.3 552.59-9.3Q550.14-9.05 549.12-8.08 548.09-7.1 548.09-5.95L548.09-5.95Q548.09-4.55 549.12-3.88 550.14-3.2 551.99-3.2L551.99-3.2ZM554.69 7.4L554.69 7.4Q557.59 7.4 559.47 6.8 561.34 6.2 562.24 5.25 563.14 4.3 563.14 3.2L563.14 3.2Q563.14 1.85 562.07 1.05 560.99 0.25 558.19 0.25L558.19 0.25 550.49 0.25Q548.89 0.25 547.79 1.07 546.69 1.9 546.69 3.35L546.69 3.35Q546.69 5.2 548.82 6.3 550.94 7.4 554.69 7.4ZM554.34-25.5L554.34-25.5Q557.34-25.5 559.67-24.43 561.99-23.35 563.29-21.45 564.59-19.55 564.59-17.05L564.59-17.05Q564.59-14.6 563.29-12.68 561.99-10.75 559.67-9.68 557.34-8.6 554.34-8.6L554.34-8.6Q549.39-8.6 546.74-10.98 544.09-13.35 544.09-17.05L544.09-17.05Q544.09-19.55 545.42-21.45 546.74-23.35 549.04-24.43 551.34-25.5 554.34-25.5ZM554.34-22.25L554.34-22.25Q551.74-22.25 549.99-20.83 548.24-19.4 548.24-17.05L548.24-17.05Q548.24-14.75 549.99-13.3 551.74-11.85 554.34-11.85L554.34-11.85Q556.94-11.85 558.69-13.3 560.44-14.75 560.44-17.05L560.44-17.05Q560.44-19.4 558.69-20.83 556.94-22.25 554.34-22.25ZM596.2-29.8L596.2-29.8Q594.85-29.8 594.02-30.63 593.2-31.45 593.2-32.8L593.2-32.8Q593.2-34.15 594.02-34.98 594.85-35.8 596.2-35.8L596.2-35.8Q597.55-35.8 598.37-34.98 599.2-34.15 599.2-32.8L599.2-32.8Q599.2-31.45 598.37-30.63 597.55-29.8 596.2-29.8ZM594.2-25L598.2-25 598.2 0 594.2 0 594.2-25ZM633.25 0L629.25 0 629.25-25 632.75-25 633.1-19.4 632.45-19.95Q633.25-21.95 634.6-23.18 635.95-24.4 637.72-24.95 639.5-25.5 641.4-25.5L641.4-25.5Q644.1-25.5 646.3-24.48 648.5-23.45 649.82-21.35 651.15-19.25 651.15-16L651.15-16 651.15 0 647.15 0 647.15-14.6Q647.15-18.75 645.37-20.38 643.6-22 641-22L641-22Q639.2-22 637.4-21.15 635.6-20.3 634.42-18.4 633.25-16.5 633.25-13.3L633.25-13.3 633.25 0ZM692.4 0.5L692.4 0.5Q688.85 0.5 686.08-1.05 683.3-2.6 681.75-5.53 680.2-8.45 680.2-12.5L680.2-12.5Q680.2-16.55 681.75-19.48 683.3-22.4 686-23.95 688.7-25.5 692.15-25.5L692.15-25.5Q695.65-25.5 698.13-24 700.6-22.5 701.9-19.93 703.2-17.35 703.2-14.15L703.2-14.15Q703.2-13.3 703.15-12.6 703.1-11.9 703-11.35L703-11.35 682.8-11.35 682.8-14.9 701.25-14.9 699.2-14.5Q699.2-18.1 697.23-20.05 695.25-22 692.05-22L692.05-22Q689.6-22 687.83-20.88 686.05-19.75 685.08-17.63 684.1-15.5 684.1-12.5L684.1-12.5Q684.1-9.55 685.1-7.4 686.1-5.25 687.93-4.13 689.75-3 692.3-3L692.3-3Q695.05-3 696.78-4.05 698.5-5.1 699.55-6.9L699.55-6.9 702.7-5.05Q701.75-3.35 700.28-2.1 698.8-0.85 696.83-0.18 694.85 0.5 692.4 0.5ZM743.01 0.5L743.01 0.5Q739.46 0.5 736.68-1.05 733.91-2.6 732.36-5.53 730.81-8.45 730.81-12.5L730.81-12.5Q730.81-16.55 732.36-19.48 733.91-22.4 736.61-23.95 739.31-25.5 742.76-25.5L742.76-25.5Q746.26-25.5 748.73-24 751.21-22.5 752.51-19.93 753.81-17.35 753.81-14.15L753.81-14.15Q753.81-13.3 753.76-12.6 753.71-11.9 753.61-11.35L753.61-11.35 733.41-11.35 733.41-14.9 751.86-14.9 749.81-14.5Q749.81-18.1 747.83-20.05 745.86-22 742.66-22L742.66-22Q740.21-22 738.43-20.88 736.66-19.75 735.68-17.63 734.71-15.5 734.71-12.5L734.71-12.5Q734.71-9.55 735.71-7.4 736.71-5.25 738.53-4.13 740.36-3 742.91-3L742.91-3Q745.66-3 747.38-4.05 749.11-5.1 750.16-6.9L750.16-6.9 753.31-5.05Q752.36-3.35 750.88-2.1 749.41-0.85 747.43-0.18 745.46 0.5 743.01 0.5ZM787.16 0L783.16 0 783.16-25 786.41-25 786.96-20.9Q788.01-23.2 790.04-24.35 792.06-25.5 794.96-25.5L794.96-25.5Q795.61-25.5 796.39-25.4 797.16-25.3 797.71-25L797.71-25 797.01-21.35Q796.46-21.55 795.81-21.65 795.16-21.75 793.96-21.75L793.96-21.75Q792.41-21.75 790.84-20.85 789.26-19.95 788.21-18.13 787.16-16.3 787.16-13.5L787.16-13.5 787.16 0ZM827.31-29.8L827.31-29.8Q825.96-29.8 825.14-30.63 824.31-31.45 824.31-32.8L824.31-32.8Q824.31-34.15 825.14-34.98 825.96-35.8 827.31-35.8L827.31-35.8Q828.66-35.8 829.49-34.98 830.31-34.15 830.31-32.8L830.31-32.8Q830.31-31.45 829.49-30.63 828.66-29.8 827.31-29.8ZM825.31-25L829.31-25 829.31 0 825.31 0 825.31-25ZM864.37 0L860.37 0 860.37-25 863.87-25 864.22-19.4 863.57-19.95Q864.37-21.95 865.72-23.18 867.07-24.4 868.84-24.95 870.62-25.5 872.52-25.5L872.52-25.5Q875.22-25.5 877.42-24.48 879.62-23.45 880.94-21.35 882.27-19.25 882.27-16L882.27-16 882.27 0 878.27 0 878.27-14.6Q878.27-18.75 876.49-20.38 874.72-22 872.12-22L872.12-22Q870.32-22 868.52-21.15 866.72-20.3 865.54-18.4 864.37-16.5 864.37-13.3L864.37-13.3 864.37 0ZM934.12-29.6L934.12-29.6 935.02-26.05Q934.97-26.05 934.87-26.05 934.77-26.05 934.67-26.05L934.67-26.05Q932.22-26.05 930.9-25.08 929.57-24.1 929.57-21.95L929.57-21.95 927.12-23.2Q927.12-25.15 928.02-26.6 928.92-28.05 930.47-28.83 932.02-29.6 933.87-29.6L933.87-29.6Q933.92-29.6 934-29.6 934.07-29.6 934.12-29.6ZM919.22-3.2L926.52-3.2Q930.07-3.2 932.07-1.58 934.07 0.05 934.07 2.75L934.07 2.75Q934.07 5.2 932.45 7 930.82 8.8 928.1 9.78 925.37 10.75 921.97 10.75L921.97 10.75Q916.07 10.75 913.15 8.75 910.22 6.75 910.22 3.95L910.22 3.95Q910.22 1.95 911.55 0.38 912.87-1.2 916.02-1.4L916.02-1.4 915.67-0.65Q913.97-1.1 912.8-2.18 911.62-3.25 911.62-5.3L911.62-5.3Q911.62-7.35 913.15-8.83 914.67-10.3 917.67-10.65L917.67-10.65 920.32-9.3 919.82-9.3Q917.37-9.05 916.35-8.08 915.32-7.1 915.32-5.95L915.32-5.95Q915.32-4.55 916.35-3.88 917.37-3.2 919.22-3.2L919.22-3.2ZM921.92 7.4L921.92 7.4Q924.82 7.4 926.7 6.8 928.57 6.2 929.47 5.25 930.37 4.3 930.37 3.2L930.37 3.2Q930.37 1.85 929.3 1.05 928.22 0.25 925.42 0.25L925.42 0.25 917.72 0.25Q916.12 0.25 915.02 1.07 913.92 1.9 913.92 3.35L913.92 3.35Q913.92 5.2 916.05 6.3 918.17 7.4 921.92 7.4ZM921.57-25.5L921.57-25.5Q924.57-25.5 926.9-24.43 929.22-23.35 930.52-21.45 931.82-19.55 931.82-17.05L931.82-17.05Q931.82-14.6 930.52-12.68 929.22-10.75 926.9-9.68 924.57-8.6 921.57-8.6L921.57-8.6Q916.62-8.6 913.97-10.98 911.32-13.35 911.32-17.05L911.32-17.05Q911.32-19.55 912.65-21.45 913.97-23.35 916.27-24.43 918.57-25.5 921.57-25.5ZM921.57-22.25L921.57-22.25Q918.97-22.25 917.22-20.83 915.47-19.4 915.47-17.05L915.47-17.05Q915.47-14.75 917.22-13.3 918.97-11.85 921.57-11.85L921.57-11.85Q924.17-11.85 925.92-13.3 927.67-14.75 927.67-17.05L927.67-17.05Q927.67-19.4 925.92-20.83 924.17-22.25 921.57-22.25Z" opacity="1" transform="matrix(1,0,0,1,0,0)" fill="#374151" class="undefined-text-1" data-fill-palette-color="secondary" id="text-1"></path></svg></g></svg></g></svg></g></svg></g><g transform="matrix(1,0,0,1,143.44056849231396,0)"><svg viewBox="0 0 110.61646301537203 83.50015628889706" height="83.50015628889706" width="110.61646301537203"><g><svg xmlns="http://www.w3.org/2000/svg" xmlns:xlink="http://www.w3.org/1999/xlink" version="1.1" x="8" y="0" viewBox="0.00022422461433615668 8.749006039860442 99.99977577538566 88.25099396013955" enable-background="new 0 0 100 100" xml:space="preserve" height="83.50015628889706" width="94.61646301537203" class="icon-icon-0" data-fill-palette-color="accent" id="icon-0"><path d="M46.551 81.719C60.418 80.506 70.382 77 70.382 77H100l-13.849-3h7.051c0-7-16.963-9.105-22.579-9.578L39.848 42.71c-1.099-0.765-2.325-1.45-3.64-1.871-8.194-7.15-8.987-12.234-9.043-12.349-1.279-9.709-3.636-13.437-3.771-13.571C15.046 3.524 7.305 11.402 7.305 11.402l-3.163 3.675c0 0-4.241 1.923-4.14 4.923h4.14c7.67 0 6.125 7.917 6.125 7.917-2.49 15.508-1.144 22.788-1.144 22.788 3.567 19.218 23.964 26.904 23.964 26.904 7.407 4.585 6.194 10.012 6.194 10.012l-2.792 6.562L25.847 97h20.974l-7.069-2.834 1.28-2.986C46.081 87.201 46.551 81.719 46.551 81.719zM13.095 14.71c-0.776 0-1.407-0.631-1.407-1.41 0-0.778 0.63-1.409 1.407-1.409 0.777 0 1.406 0.631 1.406 1.409C14.501 14.079 13.872 14.71 13.095 14.71z" fill="#374151" data-fill-palette-color="accent"></path></svg></g></svg></g><g><rect width="66.90744849231397" height="2.938778906665567" y="79.5613773822315" x="254.057031507686" fill="#374151" data-fill-palette-color="secondary"></rect><rect width="66.90744849231397" height="2.938778906665567" y="79.5613773822315" x="76.53311999999997" fill="#374151" data-fill-palette-color="secondary"></rect></g></svg></g><defs></defs></svg><rect width="395.52" height="161.43781781450548" fill="none" stroke="none" visibility="hidden"></rect></g></svg></g></svg>